<?xml version="1.0" encoding="UTF-8" standalone="no"?>
<!DOCTYPE svg PUBLIC "-//W3C//DTD SVG 1.1//EN" "http://www.w3.org/Graphics/SVG/1.1/DTD/svg11.dtd">
<svg width="100%" height="100%" viewBox="0 0 803 580" version="1.1" xmlns="http://www.w3.org/2000/svg" xmlns:xlink="http://www.w3.org/1999/xlink" xml:space="preserve" xmlns:serif="http://www.serif.com/" style="fill-rule:evenodd;clip-rule:evenodd;stroke-linejoin:round;stroke-miterlimit:2;">
    <g transform="matrix(1,0,0,1,-162.674,-459.994)">
        <g transform="matrix(1.35842,0,0,1.14793,-923.102,219.348)">
            <path d="M864.79,324.103C864.128,356.211 863.797,389.419 863.797,423.727C863.797,470.57 864.376,521.041 865.534,575.142C866.692,629.242 867.56,659.976 868.139,667.343C868.718,674.711 869.504,681.143 870.496,686.641C872.315,696.757 875.293,705.994 879.428,714.351L810.208,714.351C816.493,702.475 820.256,689.72 821.496,676.085C822.737,662.45 823.688,649.255 824.349,636.499C825.673,610.549 826.334,575.691 826.334,531.927C826.334,478.927 825.673,430.544 824.349,386.78L821.62,296.063C820.628,262.635 816.576,238.884 809.464,224.809C806.817,219.531 803.426,214.473 799.291,209.635L896.298,209.635C902.749,247.241 910.771,287.156 920.364,329.381L965.518,521.041L1034.74,209.635L1131.5,209.635C1123.39,219.091 1118.1,228.768 1115.62,238.664C1111.98,253.838 1109.91,271.432 1109.42,291.445L1107.68,349.834C1105.53,418.229 1104.45,478.927 1104.45,531.927C1104.45,620.775 1107.51,677.185 1113.63,701.156C1114.79,705.554 1116.28,709.953 1118.1,714.351L1039.95,714.351C1044.41,702.695 1046.94,690.105 1047.52,676.58C1048.09,663.055 1048.63,644.417 1049.13,620.665C1051.11,542.594 1052.11,485.744 1052.11,450.117C1052.11,391.398 1051.69,347.744 1050.87,319.155L959.564,714.351L911.184,511.805L864.79,324.103Z" style="fill:white;fill-rule:nonzero;"/>
            <path d="M1319.66,518.072L1319.41,427.685C1319.41,415.37 1317.92,407.013 1314.94,402.614C1309.48,394.477 1299.39,390.409 1284.67,390.409L1245.47,390.409C1224.96,390.409 1213.72,398.106 1211.73,413.5C1211.24,417.899 1210.99,422.627 1210.99,427.685L1210.74,526.649C1210.74,611.978 1214.05,665.419 1220.66,686.971C1223.31,695.328 1227.45,704.455 1233.07,714.351L1140.03,714.351C1145.33,697.637 1148.43,683.672 1149.34,672.456C1150.25,661.24 1151.2,647.385 1152.19,630.891C1154.01,596.364 1154.92,556.888 1154.92,512.464C1154.92,468.041 1154.84,437.417 1154.67,420.593C1154.5,403.769 1154.34,387.33 1154.17,371.276C1153.02,304.64 1151.44,264.67 1149.46,251.364C1147.48,238.059 1145.82,229.097 1144.5,224.479L1140.03,209.635L1233.07,209.635C1221.16,227.228 1214.54,250.979 1213.22,280.889C1212.73,289.905 1212.48,299.362 1212.48,309.258C1212.48,319.155 1213.18,326.907 1214.59,332.515C1215.99,338.123 1218.35,342.246 1221.66,344.885C1226.12,348.844 1236.62,350.823 1253.16,350.823L1276.74,350.823C1293.61,350.823 1304.03,349.174 1308,345.875C1314.61,340.157 1317.92,327.732 1317.92,308.599C1317.92,261.756 1310.97,228.768 1297.08,209.635L1390.12,209.635C1385.15,224.149 1382.14,237.564 1381.06,249.88C1379.99,262.195 1379.2,274.016 1378.7,285.342C1378.21,296.668 1377.71,309.808 1377.21,324.763C1376.72,339.717 1376.31,355.222 1375.98,371.276C1375.48,408.662 1375.23,442.53 1375.23,472.879C1375.23,596.254 1378.7,671.797 1385.65,699.506C1386.81,704.125 1388.3,709.073 1390.12,714.351L1297.08,714.351C1305.35,699.616 1310.39,686.916 1312.21,676.25C1314.03,665.584 1315.44,652.993 1316.43,638.479C1318.58,610.549 1319.66,570.413 1319.66,518.072Z" style="fill:white;fill-rule:nonzero;"/>
        </g>
    </g>
</svg>
